<svg id="Layer_1" data-name="Layer 1" xmlns="http://www.w3.org/2000/svg" viewBox="0 0 932.41 102.59"><defs><style>.cls-1{fill:#fff;}</style></defs><title>logo</title><path class="cls-1" d="M932.41,1.36v99.87H904.73V1.36Z"/><path class="cls-1" d="M841.53,65.24H830.77v36H803.09V1.36h38.37A69,69,0,0,1,859.6,3.47a39.39,39.39,0,0,1,12.61,5.7,22.82,22.82,0,0,1,7.33,8.24,21.34,21.34,0,0,1,2.36,9.72A22.07,22.07,0,0,1,880.12,36a33.42,33.42,0,0,1-4.57,7.64A48,48,0,0,1,869.39,50q-3.39,2.9-6.52,5.14l27.55,46.08h-32ZM830.77,17.65V50.31h15.54a17,17,0,0,0,3.17-2.39,16.79,16.79,0,0,0,2.86-3.57,20.89,20.89,0,0,0,2-4.72,20.29,20.29,0,0,0,.78-5.82,19.11,19.11,0,0,0-1-6.41,14.8,14.8,0,0,0-3-5.12,13.74,13.74,0,0,0-4.87-3.4,17.07,17.07,0,0,0-6.72-1.23Z"/><path class="cls-1" d="M734.51,102.59a61.32,61.32,0,0,1-20.39-3.27A45.38,45.38,0,0,1,698,89.74a43.7,43.7,0,0,1-10.6-15.47,54.08,54.08,0,0,1-3.82-21,57.65,57.65,0,0,1,4-21.88,48.26,48.26,0,0,1,11.21-16.8A50.39,50.39,0,0,1,716,3.81a65.47,65.47,0,0,1,42.44-.54,45.59,45.59,0,0,1,16.12,9.54,43.6,43.6,0,0,1,10.61,15.45,54.22,54.22,0,0,1,3.81,21,57.46,57.46,0,0,1-4,21.91A48.89,48.89,0,0,1,773.74,88a49.91,49.91,0,0,1-17.21,10.81A61.56,61.56,0,0,1,734.51,102.59Zm2.38-16.29a18.56,18.56,0,0,0,10.3-2.86,24.12,24.12,0,0,0,7.39-7.64,37.18,37.18,0,0,0,4.47-10.94A54.73,54.73,0,0,0,760.54,52a53.72,53.72,0,0,0-1.7-13.64A38.52,38.52,0,0,0,753.93,27a25.36,25.36,0,0,0-7.83-7.81,19.32,19.32,0,0,0-10.43-2.9,18.37,18.37,0,0,0-10.26,2.87A24,24,0,0,0,718,26.78a37.87,37.87,0,0,0-4.47,11,54.85,54.85,0,0,0-1.49,12.82,53.72,53.72,0,0,0,1.7,13.64,39,39,0,0,0,4.88,11.38,25.18,25.18,0,0,0,7.77,7.81A19.28,19.28,0,0,0,736.89,86.3Z"/><path class="cls-1" d="M563.66,101.23H540.48l8-99.87h38.65l11.59,46,3.88,20.31H604l4.37-20.38L619.9,1.36h41.51l8.05,99.87H639.19l-2.52-63.47-.06-19.22H634.9l-4.3,18.67-16.49,62H588.75l-16.5-61.9-4.43-18.81h-1.71V37.63Z"/><path class="cls-1" d="M301.67,1.36v99.87H274V1.36Z"/><path class="cls-1" d="M259,101.23H225.72L194.16,50.78,230.84,1.36H256.2L220.61,44.24Z"/><path class="cls-1" d="M194.29,1.36v99.87H166.61V1.36Z"/><path class="cls-1" d="M143.43,1.36v99.87H115.75V1.36Z"/><path class="cls-1" d="M27.68,101.23H0V1.36H27.68V41.65H64.89V1.36H92.58v99.87H64.89V57.94H27.68Z"/><path class="cls-1" d="M418.32,101.23H385.05L353.49,50.78,390.17,1.36h25.36L379.94,44.24Z"/><path class="cls-1" d="M353.62,1.36v99.87H325.94V1.36Z"/><path class="cls-1" d="M471.49,102.59a61.36,61.36,0,0,1-20.39-3.27A45.47,45.47,0,0,1,435,89.74a43.83,43.83,0,0,1-10.6-15.47,54.27,54.27,0,0,1-3.81-21,57.84,57.84,0,0,1,4-21.88,48.42,48.42,0,0,1,11.22-16.8A50.29,50.29,0,0,1,453,3.81a65.47,65.47,0,0,1,42.44-.54,45.59,45.59,0,0,1,16.12,9.54,43.57,43.57,0,0,1,10.6,15.45,54.22,54.22,0,0,1,3.82,21,57.46,57.46,0,0,1-4,21.91A48.77,48.77,0,0,1,510.72,88a49.82,49.82,0,0,1-17.21,10.81A61.48,61.48,0,0,1,471.49,102.59Zm2.38-16.29a18.52,18.52,0,0,0,10.3-2.86,24.15,24.15,0,0,0,7.4-7.64A37.73,37.73,0,0,0,496,64.86,54.73,54.73,0,0,0,497.53,52a53.27,53.27,0,0,0-1.71-13.64A38.51,38.51,0,0,0,490.92,27a25.39,25.39,0,0,0-7.84-7.81,19.29,19.29,0,0,0-10.43-2.9,18.37,18.37,0,0,0-10.26,2.87A24.08,24.08,0,0,0,455,26.78a37.32,37.32,0,0,0-4.47,11,54.32,54.32,0,0,0-1.49,12.82,53.72,53.72,0,0,0,1.69,13.64,39.59,39.59,0,0,0,4.88,11.38,25.29,25.29,0,0,0,7.77,7.81A19.3,19.3,0,0,0,473.87,86.3Z"/></svg>